# xmcd
#
# Track frame offsets: 
#        150
#        12815
#        28112
#        41298
#        53252
#        66329
#        79931
#        92966
#        106157
#        118942
#        131898
#        143515
#        156695
#        169131
#        184706
#        197851
#        210576
#        223508
#        236960
#        250107
#
# Disc length: 3513 seconds
#
# Revision: 3
# Processed by: cddbd v1.5.2PL0 Copyright (c) Steve Scherf et al.
# Submitted via: ExactAudioCopyFreeDBPlugin 1.0
#
DISCID=200db714
DTITLE=Various Artist - Blues Power CD2
DYEAR=2008
DGENRE=Blues
TTITLE0=Big Joe Williams - Please Don't Go
TTITLE1=Sonny Boy Wiliamson - Love Me Baby
TTITLE2=T-Bone Walker - Mean Old World
TTITLE3=Big Joe Turner and Freddie Slack Trio - Blues on Central Avenu
TTITLE3=e
TTITLE4=Big Bill Broonzy - Doing the Best I Can
TTITLE5=Frank Edwards - Three Women Blues
TTITLE6=Robert Johnson - Preachin' Blues
TTITLE7=Sleepy John Estes - Mailman Blues
TTITLE8=Yank Rachell - Up North Blues
TTITLE9=Blind Blues Darby - The Girl I Left Behind
TTITLE10=Rhythm Willie and His Gang - Breathtakong Blues
TTITLE11=Memphis Minnie and the Memphis Jug Band - Bumble Bee Blues
TTITLE12=Tampa Red - Mean Mistreater Blues
TTITLE13=Muddy Waters - Country Blues
TTITLE14=Robert Lockwood - Take a Little Walk with Me
TTITLE15=Tommy Mc Clennan - Bottle It Up and Go
TTITLE16=Robert Petway - Catfish Blues
TTITLE17=Tony Hollins - Crawlin' King Snake Blues
TTITLE18=Sister Rosetta Tharpe - I Looked Down the Line (And I Wondere
TTITLE18=d)
TTITLE19=Blind Willie and Kate McTell - Dying Gambler
EXTD=
EXTT0=
EXTT1=
EXTT2=
EXTT3=
EXTT4=
EXTT5=
EXTT6=
EXTT7=
EXTT8=
EXTT9=
EXTT10=
EXTT11=
EXTT12=
EXTT13=
EXTT14=
EXTT15=
EXTT16=
EXTT17=
EXTT18=
EXTT19=
PLAYORDER=
